<?xml version="1.0" encoding="UTF-8" standalone="no"?>
<!DOCTYPE svg PUBLIC "-//W3C//DTD SVG 1.1//EN" "http://www.w3.org/Graphics/SVG/1.1/DTD/svg11.dtd">
<svg width="100%" height="100%" viewBox="0 0 64 65" version="1.1" xmlns="http://www.w3.org/2000/svg" xmlns:xlink="http://www.w3.org/1999/xlink" xml:space="preserve" xmlns:serif="http://www.serif.com/" style="fill-rule:evenodd;clip-rule:evenodd;stroke-linejoin:round;stroke-miterlimit:2;">
    <path d="M0,19.207L0,13.749L0.001,13.749C0.132,6.414 14.412,0.476 31.981,0.476C49.55,0.476 63.829,6.414 63.96,13.749L63.962,13.749L63.962,19.207L63.961,19.207C63.848,26.549 49.562,32.494 31.981,32.494C14.4,32.494 0.114,26.549 0.001,19.207L0,19.207ZM37.775,11.773L45.353,8.55L45.353,10.992L49.42,10.992L49.42,5.429L36.341,5.429L36.341,7.159L42.083,7.159L34.505,10.382L37.775,11.773ZM16.215,4.764L12.945,6.155L23.41,10.606L17.668,10.606L17.668,12.336L30.747,12.336L30.747,6.773L26.68,6.773L26.68,9.215L16.215,4.764ZM29.513,15.286L26.244,13.896L18.666,17.118L18.666,14.676L14.598,14.676L14.598,20.239L27.678,20.239L27.678,18.509L21.936,18.509L29.513,15.286ZM47.785,20.934L51.055,19.543L40.59,15.093L46.332,15.093L46.332,13.363L33.253,13.363L33.253,18.925L37.32,18.925L37.32,16.483L47.785,20.934ZM64,45.459L64,50.237L63.999,50.237C63.886,57.579 49.6,63.525 32.019,63.525C14.438,63.525 0.152,57.579 0.039,50.237L0.038,50.237L0.038,45.459C4.321,51.33 17.028,55.592 32.019,55.592C47.011,55.592 59.717,51.33 64,45.459ZM64,29.902L64,34.68L63.999,34.68C63.886,42.022 49.6,47.968 32.019,47.968C14.438,47.968 0.152,42.022 0.039,34.68L0.038,34.68L0.038,29.902C4.321,35.773 17.028,40.035 32.019,40.035C47.011,40.035 59.717,35.773 64,29.902Z" style="fill:rgb(41,128,185);"/>
</svg>
