<?xml version="1.0" encoding="UTF-8" standalone="no"?>
<!DOCTYPE svg PUBLIC "-//W3C//DTD SVG 1.1//EN" "http://www.w3.org/Graphics/SVG/1.1/DTD/svg11.dtd">
<svg width="100%" height="100%" viewBox="0 0 912 211" version="1.1" xmlns="http://www.w3.org/2000/svg" xmlns:xlink="http://www.w3.org/1999/xlink" xml:space="preserve" xmlns:serif="http://www.serif.com/" style="fill-rule:evenodd;clip-rule:evenodd;stroke-linejoin:round;stroke-miterlimit:2;">
    <g>
        <g>
            <path d="M412.983,165.916C396.526,182.373 376.385,190.602 352.562,190.602C328.738,190.602 308.519,182.373 291.905,165.916C275.448,149.302 267.219,129.083 267.219,105.26C267.219,81.436 275.448,61.295 291.905,44.838C308.519,28.224 328.738,19.917 352.562,19.917C376.385,19.917 396.526,28.224 412.983,44.838C429.597,61.295 437.904,81.436 437.904,105.26C437.904,129.083 429.597,149.302 412.983,165.916ZM310.948,147.578C322.39,158.706 336.261,164.27 352.562,164.27C369.019,164.27 382.811,158.706 393.94,147.578C405.225,136.293 410.867,122.187 410.867,105.26C410.867,88.332 405.225,74.304 393.94,63.176C382.811,51.891 369.019,46.249 352.562,46.249C336.104,46.249 322.233,51.891 310.948,63.176C299.82,74.304 294.256,88.332 294.256,105.26C294.256,122.03 299.82,136.136 310.948,147.578Z" style="fill:rgb(41,128,185);fill-rule:nonzero;"/>
            <path d="M559.452,102.203C566.662,105.965 572.304,111.176 576.379,117.838C580.454,124.499 582.492,132.061 582.492,140.525C582.492,154.004 577.712,165.211 568.151,174.145C558.59,183.079 546.913,187.546 533.12,187.546L462.59,187.546L462.59,22.974L527.948,22.974C541.427,22.974 552.791,27.362 562.038,36.139C571.442,44.917 576.144,55.731 576.144,68.584C576.144,82.69 570.58,93.896 559.452,102.203ZM527.948,48.365L489.626,48.365L489.626,91.624L527.948,91.624C533.904,91.624 538.92,89.547 542.995,85.393C547.07,81.24 549.107,76.107 549.107,69.994C549.107,63.882 547.07,58.748 542.995,54.595C538.92,50.441 533.904,48.365 527.948,48.365ZM489.626,162.154L533.12,162.154C539.39,162.154 544.68,159.921 548.99,155.454C553.3,150.987 555.455,145.541 555.455,139.114C555.455,132.688 553.3,127.242 548.99,122.775C544.68,118.308 539.39,116.074 533.12,116.074L489.626,116.074L489.626,162.154Z" style="fill:rgb(41,128,185);fill-rule:nonzero;"/>
            <path d="M734.603,22.974L763.521,22.974L763.521,187.546L736.484,187.546L736.484,70.229L686.407,152.985L683.116,152.985L633.039,69.994L633.039,187.546L606.002,187.546L606.002,22.974L635.155,22.974L684.762,105.26L734.603,22.974Z" style="fill:rgb(41,128,185);fill-rule:nonzero;"/>
            <path d="M796.435,22.974L857.092,22.974C872.609,22.974 885.539,28.146 895.884,38.49C906.385,48.835 911.636,61.687 911.636,77.047C911.636,92.251 906.385,105.103 895.884,115.604C885.539,125.949 872.609,131.121 857.092,131.121L823.472,131.121L823.472,187.546L796.435,187.546L796.435,22.974ZM823.472,105.73L857.092,105.73C865.085,105.73 871.668,103.026 876.841,97.619C882.013,92.211 884.599,85.354 884.599,77.047C884.599,68.74 882.013,61.883 876.841,56.476C871.668,51.068 865.085,48.365 857.092,48.365L823.472,48.365L823.472,105.73Z" style="fill:rgb(41,128,185);fill-rule:nonzero;"/>
        </g>
        <path d="M0,62.542L0,44.319L0.005,44.319C0.442,19.827 48.121,0 106.785,0C165.449,0 213.127,19.827 213.564,44.319L213.569,44.319L213.569,62.542L213.565,62.542C213.189,87.056 165.487,106.909 106.785,106.909C48.082,106.909 0.38,87.056 0.004,62.542L0,62.542ZM126.132,37.718L151.434,26.958L151.434,35.112L165.015,35.112L165.015,16.539L121.343,16.539L121.343,22.315L140.516,22.315L115.214,33.075L126.132,37.718ZM54.141,14.318L43.223,18.962L78.167,33.823L58.994,33.823L58.994,39.599L102.666,39.599L102.666,21.026L89.084,21.026L89.084,29.179L54.141,14.318ZM98.546,49.45L87.628,44.807L62.326,55.568L62.326,47.414L48.744,47.414L48.744,65.987L92.416,65.987L92.416,60.211L73.244,60.211L98.546,49.45ZM159.556,68.308L170.474,63.665L135.53,48.804L154.703,48.804L154.703,43.028L111.031,43.028L111.031,61.601L124.612,61.601L124.612,53.447L159.556,68.308ZM213.697,150.197L213.697,166.152L213.693,166.152C213.317,190.666 165.615,210.519 106.912,210.519C48.21,210.519 0.508,190.666 0.132,166.152L0.128,166.152L0.128,150.197C14.429,169.801 56.856,184.032 106.912,184.032C156.969,184.032 199.396,169.801 213.697,150.197ZM213.697,98.253L213.697,114.208L213.693,114.208C213.317,138.722 165.615,158.575 106.912,158.575C48.21,158.575 0.508,138.722 0.132,114.208L0.128,114.208L0.128,98.253C14.429,117.857 56.856,132.088 106.912,132.088C156.969,132.088 199.396,117.857 213.697,98.253Z" style="fill:rgb(41,128,185);"/>
    </g>
</svg>
